{
    "asset" : {
        "generator" : "Khronos glTF Blender I/O v1.4.40",
        "version" : "2.0"
    },
    "scene" : 0,
    "scenes" : [
        {
            "name" : "Scene",
            "nodes" : [
                0,
                1,
                2,
                3,
                4
            ]
        }
    ],
    "nodes" : [
        {
            "mesh" : 0,
            "name" : "group135",
            "rotation" : [
                0.7071068286895752,
                0,
                0,
                0.7071067094802856
            ],
            "translation" : [
                -0.0007575013441964984,
                -0.00364710227586329,
                0.0039812009781599045
            ]
        },
        {
            "name" : "Light",
            "rotation" : [
                0.16907575726509094,
                0.7558803558349609,
                -0.27217137813568115,
                0.570947527885437
            ],
            "translation" : [
                17.854936599731445,
                12.347265243530273,
                32.992671966552734
            ]
        },
        {
            "name" : "Camera",
            "rotation" : [
                0.483536034822464,
                0.33687159419059753,
                -0.20870360732078552,
                0.7804827094078064
            ],
            "translation" : [
                7.358891487121582,
                4.958309173583984,
                6.925790786743164
            ]
        },
        {
            "mesh" : 1,
            "name" : "Plane",
            "scale" : [
                50,
                1,
                50
            ],
            "translation" : [
                0,
                0.25,
                0
            ]
        },
        {
            "mesh" : 2,
            "name" : "Plane.001",
            "rotation" : [
                0.7071068286895752,
                0,
                0,
                0.7071068286895752
            ],
            "scale" : [
                30,
                1,
                10
            ],
            "translation" : [
                16.439420700073242,
                10,
                -2.9724223613739014
            ]
        }
    ],
    "materials" : [
        {
            "doubleSided" : true,
            "name" : "materials.001",
            "normalTexture" : {
                "index" : 0,
                "texCoord" : 0
            },
            "pbrMetallicRoughness" : {
                "baseColorTexture" : {
                    "index" : 1,
                    "texCoord" : 0
                },
                "metallicFactor" : 0,
                "roughnessFactor" : 0.8666666746139526
            }
        },
        {
            "doubleSided" : true,
            "name" : "Plane",
            "pbrMetallicRoughness" : {
                "baseColorFactor" : [
                    0.800000011920929,
                    0.800000011920929,
                    0.800000011920929,
                    1
                ],
                "metallicFactor" : 0,
                "roughnessFactor" : 0.6843971610069275
            }
        }
    ],
    "meshes" : [
        {
            "name" : "group135.001",
            "primitives" : [
                {
                    "attributes" : {
                        "POSITION" : 0,
                        "NORMAL" : 1,
                        "TEXCOORD_0" : 2
                    },
                    "indices" : 3,
                    "material" : 0
                }
            ]
        },
        {
            "name" : "Plane.002",
            "primitives" : [
                {
                    "attributes" : {
                        "POSITION" : 4,
                        "NORMAL" : 5,
                        "TEXCOORD_0" : 6
                    },
                    "indices" : 7,
                    "material" : 1
                }
            ]
        },
        {
            "name" : "Plane.003",
            "primitives" : [
                {
                    "attributes" : {
                        "POSITION" : 8,
                        "NORMAL" : 9,
                        "TEXCOORD_0" : 10
                    },
                    "indices" : 7
                }
            ]
        }
    ],
    "textures" : [
        {
            "sampler" : 0,
            "source" : 0
        },
        {
            "sampler" : 0,
            "source" : 1
        }
    ],
    "images" : [
        {
            "mimeType" : "image/png",
            "name" : "N_sm_tronco_bump",
            "uri" : "TreesShadows/N_sm_tronco_bump.png"
        },
        {
            "mimeType" : "image/png",
            "name" : "sm_tronco",
            "uri" : "TreesShadows/sm_tronco.png"
        }
    ],
    "accessors" : [
        {
            "bufferView" : 0,
            "componentType" : 5126,
            "count" : 104848,
            "max" : [
                22.769500732421875,
                14.406800270080566,
                -0.23937399685382843
            ],
            "min" : [
                6.959000110626221,
                2.136970043182373,
                -12.932000160217285
            ],
            "type" : "VEC3"
        },
        {
            "bufferView" : 1,
            "componentType" : 5126,
            "count" : 104848,
            "type" : "VEC3"
        },
        {
            "bufferView" : 2,
            "componentType" : 5126,
            "count" : 104848,
            "type" : "VEC2"
        },
        {
            "bufferView" : 3,
            "componentType" : 5125,
            "count" : 448227,
            "type" : "SCALAR"
        },
        {
            "bufferView" : 4,
            "componentType" : 5126,
            "count" : 4,
            "max" : [
                1,
                0,
                1
            ],
            "min" : [
                -1,
                0,
                -1
            ],
            "type" : "VEC3"
        },
        {
            "bufferView" : 5,
            "componentType" : 5126,
            "count" : 4,
            "type" : "VEC3"
        },
        {
            "bufferView" : 6,
            "componentType" : 5126,
            "count" : 4,
            "type" : "VEC2"
        },
        {
            "bufferView" : 7,
            "componentType" : 5123,
            "count" : 6,
            "type" : "SCALAR"
        },
        {
            "bufferView" : 8,
            "componentType" : 5126,
            "count" : 4,
            "max" : [
                1,
                0,
                1
            ],
            "min" : [
                -1,
                0,
                -1
            ],
            "type" : "VEC3"
        },
        {
            "bufferView" : 9,
            "componentType" : 5126,
            "count" : 4,
            "type" : "VEC3"
        },
        {
            "bufferView" : 10,
            "componentType" : 5126,
            "count" : 4,
            "type" : "VEC2"
        }
    ],
    "bufferViews" : [
        {
            "buffer" : 0,
            "byteLength" : 1258176,
            "byteOffset" : 0
        },
        {
            "buffer" : 0,
            "byteLength" : 1258176,
            "byteOffset" : 1258176
        },
        {
            "buffer" : 0,
            "byteLength" : 838784,
            "byteOffset" : 2516352
        },
        {
            "buffer" : 0,
            "byteLength" : 1792908,
            "byteOffset" : 3355136
        },
        {
            "buffer" : 0,
            "byteLength" : 48,
            "byteOffset" : 5148044
        },
        {
            "buffer" : 0,
            "byteLength" : 48,
            "byteOffset" : 5148092
        },
        {
            "buffer" : 0,
            "byteLength" : 32,
            "byteOffset" : 5148140
        },
        {
            "buffer" : 0,
            "byteLength" : 12,
            "byteOffset" : 5148172
        },
        {
            "buffer" : 0,
            "byteLength" : 48,
            "byteOffset" : 5148184
        },
        {
            "buffer" : 0,
            "byteLength" : 48,
            "byteOffset" : 5148232
        },
        {
            "buffer" : 0,
            "byteLength" : 32,
            "byteOffset" : 5148280
        }
    ],
    "samplers" : [
        {
            "magFilter" : 9729,
            "minFilter" : 9986
        }
    ],
    "buffers" : [
        {
            "byteLength" : 5148312,
            "uri" : "TreesShadows.bin"
        }
    ]
}
