{
  "asset": {
    "generator": "Khronos glTF Blender I/O v1.5.17",
    "version": "2.0"
  },
  "scene": 0,
  "scenes": [
    {
      "name": "Scene",
      "nodes": [
        0,
        1,
        2,
        3
      ]
    }
  ],
  "nodes": [
    {
      "mesh": 0,
      "name": "cornell",
      "rotation": [
        0.7071068286895752,
        0,
        0,
        0.7071068286895752
      ]
    },
    {
      "name": "Light",
      "rotation": [
        0.16907575726509094,
        0.7558803558349609,
        -0.27217137813568115,
        0.570947527885437
      ],
      "translation": [
        4.076245307922363,
        5.903861999511719,
        -1.0054539442062378
      ]
    },
    {
      "name": "Camera",
      "rotation": [
        0.483536034822464,
        0.33687159419059753,
        -0.20870360732078552,
        0.7804827094078064
      ],
      "translation": [
        7.358891487121582,
        4.958309173583984,
        6.925790786743164
      ]
    },
    {
      "translation": [ 0, 1, 3.5 ],
      "rotation": [ 0, 0, 0, 1 ],
      "camera": 0
    }
  ],
  "materials": [
    {
      "name": "white",
      "pbrMetallicRoughness": {
        "baseColorFactor": [
          0.7250000238418579,
          0.7099999785423279,
          0.6800000071525574,
          1
        ],
        "metallicFactor": 0
      }
    },
    {
      "name": "red",
      "pbrMetallicRoughness": {
        "baseColorFactor": [
          0.6299999952316284,
          0.06499999761581421,
          0.05000000074505806,
          1
        ],
        "metallicFactor": 0
      }
    },
    {
      "name": "green",
      "pbrMetallicRoughness": {
        "baseColorFactor": [
          0.14000000059604645,
          0.44999998807907104,
          0.09099999815225601,
          1
        ],
        "metallicFactor": 0
      }
    }
  ],
  "meshes": [
    {
      "name": "cornell",
      "primitives": [
        {
          "attributes": {
            "POSITION": 0,
            "NORMAL": 1,
            "TEXCOORD_0": 2
          },
          "indices": 3,
          "material": 0
        },
        {
          "attributes": {
            "POSITION": 4,
            "NORMAL": 5,
            "TEXCOORD_0": 6
          },
          "indices": 7,
          "material": 1
        },
        {
          "attributes": {
            "POSITION": 8,
            "NORMAL": 9,
            "TEXCOORD_0": 10
          },
          "indices": 7,
          "material": 2
        }
      ]
    }
  ],
  "accessors": [
    {
      "bufferView": 0,
      "componentType": 5126,
      "count": 74,
      "max": [
        1,
        1,
        0.019999999552965164
      ],
      "min": [
        -1,
        -1,
        -2
      ],
      "type": "VEC3"
    },
    {
      "bufferView": 1,
      "componentType": 5126,
      "count": 74,
      "type": "VEC3"
    },
    {
      "bufferView": 2,
      "componentType": 5126,
      "count": 74,
      "type": "VEC2"
    },
    {
      "bufferView": 3,
      "componentType": 5123,
      "count": 90,
      "type": "SCALAR"
    },
    {
      "bufferView": 4,
      "componentType": 5126,
      "count": 4,
      "max": [
        -1,
        1,
        0
      ],
      "min": [
        -1,
        -1,
        -2
      ],
      "type": "VEC3"
    },
    {
      "bufferView": 5,
      "componentType": 5126,
      "count": 4,
      "type": "VEC3"
    },
    {
      "bufferView": 6,
      "componentType": 5126,
      "count": 4,
      "type": "VEC2"
    },
    {
      "bufferView": 7,
      "componentType": 5123,
      "count": 6,
      "type": "SCALAR"
    },
    {
      "bufferView": 8,
      "componentType": 5126,
      "count": 4,
      "max": [
        1,
        1,
        0
      ],
      "min": [
        1,
        -1,
        -2
      ],
      "type": "VEC3"
    },
    {
      "bufferView": 9,
      "componentType": 5126,
      "count": 4,
      "type": "VEC3"
    },
    {
      "bufferView": 10,
      "componentType": 5126,
      "count": 4,
      "type": "VEC2"
    }
  ],
  "bufferViews": [
    {
      "buffer": 0,
      "byteLength": 888,
      "byteOffset": 0
    },
    {
      "buffer": 0,
      "byteLength": 888,
      "byteOffset": 888
    },
    {
      "buffer": 0,
      "byteLength": 592,
      "byteOffset": 1776
    },
    {
      "buffer": 0,
      "byteLength": 180,
      "byteOffset": 2368
    },
    {
      "buffer": 0,
      "byteLength": 48,
      "byteOffset": 2548
    },
    {
      "buffer": 0,
      "byteLength": 48,
      "byteOffset": 2596
    },
    {
      "buffer": 0,
      "byteLength": 32,
      "byteOffset": 2644
    },
    {
      "buffer": 0,
      "byteLength": 12,
      "byteOffset": 2676
    },
    {
      "buffer": 0,
      "byteLength": 48,
      "byteOffset": 2688
    },
    {
      "buffer": 0,
      "byteLength": 48,
      "byteOffset": 2736
    },
    {
      "buffer": 0,
      "byteLength": 32,
      "byteOffset": 2784
    }
  ],
  "buffers": [
    {
      "byteLength": 2816,
      "uri": "cornell_box.bin"
    }
  ],
  "cameras": [
    {
      "type": "perspective",
      "perspective": {
        "aspectRatio": 1.0,
        "yfov": 0.7854,
        "zfar": 100,
        "znear": 0.01
      }
    }
  ]
}
