{
    "asset" : {
        "generator" : "Khronos glTF Blender I/O v1.4.40",
        "version" : "2.0"
    },
    "scene" : 0,
    "scenes" : [
        {
            "name" : "Scene",
            "nodes" : [
                0,
                1,
                2,
                3,
                4,
                5,
                6
            ]
        }
    ],
    "nodes" : [
        {
            "mesh" : 0,
            "name" : "WaterBottle",
            "rotation" : [
                0,
                1,
                0,
                0
            ]
        },
        {
            "name" : "Light",
            "rotation" : [
                0.16907575726509094,
                0.7558803558349609,
                -0.27217137813568115,
                0.570947527885437
            ],
            "translation" : [
                4.076245307922363,
                5.903861999511719,
                -1.0054539442062378
            ]
        },
        {
            "name" : "Camera",
            "rotation" : [
                0.483536034822464,
                0.33687159419059753,
                -0.20870360732078552,
                0.7804827094078064
            ],
            "translation" : [
                7.358891487121582,
                4.958309173583984,
                6.925790786743164
            ]
        },
        {
            "mesh" : 1,
            "name" : "Floor",
            "scale" : [
                1.5,
                1,
                2
            ],
            "translation" : [
                0,
                -0.12999998033046722,
                0
            ]
        },
        {
            "mesh" : 2,
            "name" : "Vitro",
            "rotation" : [
                0,
                0,
                -0.7071068286895752,
                0.7071068286895752
            ],
            "scale" : [
                1,
                1,
                2
            ],
            "translation" : [
                -5.299999713897705,
                0.800000011920929,
                0
            ]
        },
        {
            "mesh" : 3,
            "name" : "Cone",
            "scale" : [
                0.25,
                0.25,
                0.25
            ],
            "translation" : [
                0,
                0.12638919055461884,
                -0.6434158682823181
            ]
        },
        {
            "mesh" : 4,
            "name" : "Cube",
            "scale" : [
                0.125,
                0.125,
                0.125
            ],
            "translation" : [
                0,
                0,
                0.5954355597496033
            ]
        }
    ],
    "materials" : [
        {
            "emissiveFactor" : [
                1,
                1,
                1
            ],
            "emissiveTexture" : {
                "index" : 0,
                "texCoord" : 0
            },
            "name" : "BottleMat",
            "normalTexture" : {
                "index" : 1,
                "texCoord" : 0
            },
            "occlusionTexture" : {
                "index" : 2,
                "texCoord" : 0
            },
            "pbrMetallicRoughness" : {
                "baseColorTexture" : {
                    "index" : 3,
                    "texCoord" : 0
                },
                "metallicRoughnessTexture" : {
                    "index" : 2,
                    "texCoord" : 0
                }
            }
        },
        {
            "doubleSided" : true,
            "name" : "Floor",
            "pbrMetallicRoughness" : {
                "baseColorFactor" : [
                    0.800000011920929,
                    0.800000011920929,
                    0.800000011920929,
                    1
                ],
                "metallicFactor" : 0,
                "roughnessFactor" : 0.90212766528129578
            }
        },
        {
            "doubleSided" : true,
            "name" : "Vitro",
            "pbrMetallicRoughness" : {
                "baseColorTexture" : {
                    "index" : 4,
                    "texCoord" : 0
                },
                "metallicFactor" : 0,
                "roughnessFactor" : 0.5
            }
        },
        {
            "doubleSided" : true,
            "name" : "Cone",
            "pbrMetallicRoughness" : {
                "baseColorFactor" : [
                    0.800000011920929,
                    0.800000011920929,
                    0.800000011920929,
                    1
                ],
                "metallicFactor" : 0,
                "roughnessFactor" : 0.9468085169792175
            }
        },
        {
            "doubleSided" : true,
            "name" : "Metallic",
            "pbrMetallicRoughness" : {
                "baseColorFactor" : [
                    0.800000011920929,
                    0.800000011920929,
                    0.800000011920929,
                    1
                ],
                "metallicFactor" : 0.6595744490623474,
                "roughnessFactor" : 0.22340425848960876
            }
        }
    ],
    "meshes" : [
        {
            "name" : "WaterBottle",
            "primitives" : [
                {
                    "attributes" : {
                        "POSITION" : 0,
                        "NORMAL" : 1,
                        "TEXCOORD_0" : 2
                    },
                    "indices" : 3,
                    "material" : 0
                }
            ]
        },
        {
            "name" : "Plane",
            "primitives" : [
                {
                    "attributes" : {
                        "POSITION" : 4,
                        "NORMAL" : 5,
                        "TEXCOORD_0" : 6
                    },
                    "indices" : 7,
                    "material" : 1
                }
            ]
        },
        {
            "name" : "Plane.001",
            "primitives" : [
                {
                    "attributes" : {
                        "POSITION" : 8,
                        "NORMAL" : 9,
                        "TEXCOORD_0" : 10
                    },
                    "indices" : 7,
                    "material" : 2
                }
            ]
        },
        {
            "name" : "Cone",
            "primitives" : [
                {
                    "attributes" : {
                        "POSITION" : 11,
                        "NORMAL" : 12,
                        "TEXCOORD_0" : 13
                    },
                    "indices" : 14,
                    "material" : 3
                }
            ]
        },
        {
            "name" : "Cube.001",
            "primitives" : [
                {
                    "attributes" : {
                        "POSITION" : 15,
                        "NORMAL" : 16,
                        "TEXCOORD_0" : 17
                    },
                    "indices" : 18,
                    "material" : 4
                }
            ]
        }
    ],
    "textures" : [
        {
            "sampler" : 0,
            "source" : 0
        },
        {
            "sampler" : 0,
            "source" : 1
        },
        {
            "sampler" : 0,
            "source" : 2
        },
        {
            "sampler" : 0,
            "source" : 3
        },
        {
            "sampler" : 0,
            "source" : 4
        }
    ],
    "images" : [
        {
            "mimeType" : "image/png",
            "name" : "WaterBottle_emissive",
            "uri" : "WaterBottle_emissive.png"
        },
        {
            "mimeType" : "image/png",
            "name" : "WaterBottle_normal",
            "uri" : "WaterBottle_normal.png"
        },
        {
            "mimeType" : "image/png",
            "name" : "WaterBottle_occlusionRoughnessMetallic",
            "uri" : "WaterBottle_occlusionRoughnessMetallic.png"
        },
        {
            "mimeType" : "image/png",
            "name" : "WaterBottle_baseColor",
            "uri" : "WaterBottle_baseColor.png"
        },
        {
            "mimeType" : "image/jpeg",
            "name" : "5080232281580320",
            "uri" : "5080232281580320.jpg"
        }
    ],
    "accessors" : [
        {
            "bufferView" : 0,
            "componentType" : 5126,
            "count" : 2549,
            "max" : [
                0.054450009018182755,
                0.13022033870220184,
                0.05445002391934395
            ],
            "min" : [
                -0.054450009018182755,
                -0.13022033870220184,
                -0.05445002391934395
            ],
            "type" : "VEC3"
        },
        {
            "bufferView" : 1,
            "componentType" : 5126,
            "count" : 2549,
            "type" : "VEC3"
        },
        {
            "bufferView" : 2,
            "componentType" : 5126,
            "count" : 2549,
            "type" : "VEC2"
        },
        {
            "bufferView" : 3,
            "componentType" : 5123,
            "count" : 13530,
            "type" : "SCALAR"
        },
        {
            "bufferView" : 4,
            "componentType" : 5126,
            "count" : 4,
            "max" : [
                1,
                0,
                1
            ],
            "min" : [
                -1,
                0,
                -1
            ],
            "type" : "VEC3"
        },
        {
            "bufferView" : 5,
            "componentType" : 5126,
            "count" : 4,
            "type" : "VEC3"
        },
        {
            "bufferView" : 6,
            "componentType" : 5126,
            "count" : 4,
            "type" : "VEC2"
        },
        {
            "bufferView" : 7,
            "componentType" : 5123,
            "count" : 6,
            "type" : "SCALAR"
        },
        {
            "bufferView" : 8,
            "componentType" : 5126,
            "count" : 4,
            "max" : [
                1,
                0,
                1
            ],
            "min" : [
                -1,
                0,
                -1
            ],
            "type" : "VEC3"
        },
        {
            "bufferView" : 9,
            "componentType" : 5126,
            "count" : 4,
            "type" : "VEC3"
        },
        {
            "bufferView" : 10,
            "componentType" : 5126,
            "count" : 4,
            "type" : "VEC2"
        },
        {
            "bufferView" : 11,
            "componentType" : 5126,
            "count" : 128,
            "max" : [
                1,
                1,
                1
            ],
            "min" : [
                -1,
                -1,
                -1
            ],
            "type" : "VEC3"
        },
        {
            "bufferView" : 12,
            "componentType" : 5126,
            "count" : 128,
            "type" : "VEC3"
        },
        {
            "bufferView" : 13,
            "componentType" : 5126,
            "count" : 128,
            "type" : "VEC2"
        },
        {
            "bufferView" : 14,
            "componentType" : 5123,
            "count" : 186,
            "type" : "SCALAR"
        },
        {
            "bufferView" : 15,
            "componentType" : 5126,
            "count" : 24,
            "max" : [
                1,
                1,
                1
            ],
            "min" : [
                -1,
                -1,
                -1
            ],
            "type" : "VEC3"
        },
        {
            "bufferView" : 16,
            "componentType" : 5126,
            "count" : 24,
            "type" : "VEC3"
        },
        {
            "bufferView" : 17,
            "componentType" : 5126,
            "count" : 24,
            "type" : "VEC2"
        },
        {
            "bufferView" : 18,
            "componentType" : 5123,
            "count" : 36,
            "type" : "SCALAR"
        }
    ],
    "bufferViews" : [
        {
            "buffer" : 0,
            "byteLength" : 30588,
            "byteOffset" : 0
        },
        {
            "buffer" : 0,
            "byteLength" : 30588,
            "byteOffset" : 30588
        },
        {
            "buffer" : 0,
            "byteLength" : 20392,
            "byteOffset" : 61176
        },
        {
            "buffer" : 0,
            "byteLength" : 27060,
            "byteOffset" : 81568
        },
        {
            "buffer" : 0,
            "byteLength" : 48,
            "byteOffset" : 108628
        },
        {
            "buffer" : 0,
            "byteLength" : 48,
            "byteOffset" : 108676
        },
        {
            "buffer" : 0,
            "byteLength" : 32,
            "byteOffset" : 108724
        },
        {
            "buffer" : 0,
            "byteLength" : 12,
            "byteOffset" : 108756
        },
        {
            "buffer" : 0,
            "byteLength" : 48,
            "byteOffset" : 108768
        },
        {
            "buffer" : 0,
            "byteLength" : 48,
            "byteOffset" : 108816
        },
        {
            "buffer" : 0,
            "byteLength" : 32,
            "byteOffset" : 108864
        },
        {
            "buffer" : 0,
            "byteLength" : 1536,
            "byteOffset" : 108896
        },
        {
            "buffer" : 0,
            "byteLength" : 1536,
            "byteOffset" : 110432
        },
        {
            "buffer" : 0,
            "byteLength" : 1024,
            "byteOffset" : 111968
        },
        {
            "buffer" : 0,
            "byteLength" : 372,
            "byteOffset" : 112992
        },
        {
            "buffer" : 0,
            "byteLength" : 288,
            "byteOffset" : 113364
        },
        {
            "buffer" : 0,
            "byteLength" : 288,
            "byteOffset" : 113652
        },
        {
            "buffer" : 0,
            "byteLength" : 192,
            "byteOffset" : 113940
        },
        {
            "buffer" : 0,
            "byteLength" : 72,
            "byteOffset" : 114132
        }
    ],
    "samplers" : [
        {
            "magFilter" : 9729,
            "minFilter" : 9986
        }
    ],
    "buffers" : [
        {
            "byteLength" : 114204,
            "uri" : "example1.bin"
        }
    ]
}
